<svg data-v-423bf9ae="" xmlns="http://www.w3.org/2000/svg" viewBox="0 0 311.0350235666924 60" class="font"><!----><!----><!----><g data-v-423bf9ae="" id="26cd3f5f-a88b-4050-9ddf-ee005bb84e88" fill="black" transform="matrix(4.467609882354736,0,0,4.467609882354736,-3.306027889251709,-1.7423661947250366)"><path d="M3.65 13.82C5.67 13.82 6.72 13.17 6.72 11.61C6.72 9.91 6.01 9.58 4.10 9.58C2.44 9.56 2.32 9.49 2.32 8.89C2.32 8.71 2.60 8.02 2.60 8.02C2.76 8.05 3.19 8.08 3.32 8.08C5.08 8.08 5.96 7.52 5.96 5.74C5.96 4.91 5.75 4.51 5.46 4.21L6.86 4.24L6.86 3.50L4.83 3.54C4.83 3.54 4.09 3.36 3.36 3.36C1.83 3.36 0.83 4.03 0.83 5.74C0.83 7.04 1.37 7.60 1.97 7.85C1.97 7.85 1.53 8.71 1.53 8.95C1.53 9.38 1.64 9.74 1.88 9.90C1.13 10.44 0.74 10.81 0.74 11.66C0.74 13.29 1.40 13.82 3.65 13.82ZM4.05 10.32C5.36 10.32 5.87 10.44 5.87 11.63C5.87 12.67 5.21 13.09 3.67 13.09C1.96 13.09 1.58 12.70 1.58 11.61C1.58 11.00 1.79 10.74 2.46 10.26C2.46 10.26 3.51 10.32 4.05 10.32ZM3.36 7.38C2.18 7.38 1.68 6.94 1.68 5.74C1.68 4.52 2.18 4.06 3.36 4.06C4.65 4.06 5.11 4.52 5.11 5.74C5.11 6.94 4.65 7.38 3.36 7.38ZM8.18 10.50L9.00 10.50L9.00 5.25C9.00 5.25 10.30 4.48 11.65 4.20L11.65 3.36C10.22 3.63 9.00 4.51 9.00 4.51L9.00 3.50L8.18 3.50ZM17.74 5.59C17.74 4.10 17.09 3.36 15.57 3.36C14.39 3.36 12.85 3.65 12.85 3.65L12.89 4.33C12.89 4.33 14.53 4.12 15.54 4.12C16.44 4.12 16.91 4.52 16.91 5.59L16.91 6.24L14.53 6.48C13.12 6.62 12.47 7.24 12.47 8.53C12.47 9.93 13.16 10.64 14.39 10.64C15.71 10.64 17.02 10.07 17.02 10.07C17.40 10.49 17.92 10.63 18.61 10.63L18.65 9.95C18.19 9.90 17.78 9.76 17.74 9.34ZM16.91 6.90L16.91 9.44C16.91 9.44 15.64 9.93 14.50 9.93C13.73 9.93 13.34 9.41 13.34 8.51C13.34 7.67 13.69 7.22 14.63 7.14ZM22.92 3.36C21.83 3.36 20.73 3.88 20.73 3.88L20.73 0.39L19.89 0.39L19.89 10.50C19.89 10.50 21.25 10.64 22.13 10.64C24.71 10.64 25.41 9.60 25.41 6.89C25.41 4.41 24.82 3.36 22.92 3.36ZM22.13 9.88C21.71 9.88 20.73 9.80 20.73 9.80L20.73 4.59C20.73 4.59 21.77 4.12 22.85 4.12C24.19 4.12 24.54 4.98 24.54 6.89C24.54 8.96 24.21 9.88 22.13 9.88ZM29.69 0.77L31.70 10.50L33.43 10.50L35.35 1.96L37.27 10.50L39.00 10.50L41.01 0.77L40.12 0.77L38.36 9.73L37.90 9.73L35.87 0.88L34.85 0.88L32.80 9.73L32.34 9.73L30.58 0.77ZM48.83 10.50L49.69 10.50L49.69 0.77L48.83 0.77L48.83 5.24L43.55 5.24L43.55 0.77L42.69 0.77L42.69 10.50L43.55 10.50L43.55 6.01L48.83 6.01ZM55.55 9.86C53.13 9.86 52.65 8.44 52.65 5.68C52.65 2.94 53.17 1.41 55.55 1.41C57.92 1.41 58.46 2.95 58.46 5.68C58.46 8.54 57.97 9.86 55.55 9.86ZM55.55 10.64C58.56 10.64 59.36 9.03 59.36 5.68C59.36 2.46 58.55 0.63 55.55 0.63C52.56 0.63 51.76 2.48 51.76 5.68C51.76 8.92 52.54 10.64 55.55 10.64ZM61.40 10.50L62.27 10.50L62.27 0.77L61.40 0.77ZM70.15 0.88C70.15 0.88 68.42 0.62 67.28 0.62C65.41 0.62 64.20 1.32 64.20 3.16C64.20 5.10 65.25 5.52 67.23 5.89C68.85 6.19 69.48 6.50 69.48 7.71C69.48 9.21 68.74 9.84 67.28 9.84C66.29 9.84 64.37 9.60 64.37 9.60L64.27 10.35C64.27 10.35 66.21 10.61 67.31 10.61C69.23 10.61 70.36 9.81 70.36 7.66C70.36 5.94 69.45 5.47 67.55 5.10C65.83 4.76 65.09 4.55 65.09 3.11C65.09 1.90 65.88 1.39 67.34 1.39C68.15 1.39 70.08 1.62 70.08 1.62Z"></path></g><!----><!----></svg>