<svg data-v-fde0c5aa="" xmlns="http://www.w3.org/2000/svg" viewBox="0 0 300 300" class="font"><!----><defs data-v-fde0c5aa=""><!----></defs><rect data-v-fde0c5aa="" fill="transparent" x="0" y="0" width="300px" height="300px" class="logo-background-square"></rect><defs data-v-fde0c5aa=""><linearGradient data-v-fde0c5aa="" gradientTransform="rotate(25)" id="3c800086-244b-483f-8936-82fc19f5b8d9" x1="0%" y1="0%" x2="100%" y2="0%"><stop data-v-fde0c5aa="" offset="0%" stop-color="#b5e853" stop-opacity="1"></stop><stop data-v-fde0c5aa="" offset="100%" stop-color="#C8C9C4" stop-opacity="1"></stop></linearGradient></defs><g data-v-fde0c5aa="" id="75cd419a-4fa0-43ee-90c0-766481655597" fill="url(#3c800086-244b-483f-8936-82fc19f5b8d9)" transform="matrix(2.905824661254883,0,0,2.905824661254883,37.96592281441195,120.41870606749944)"><path d="M6.86 6.83L6.86 8.18L6.66 8.18C6.27 7.42 5.50 6.64 3.98 6.64C2.11 6.64 0.70 8.06 0.70 10.25C0.70 12.43 2.11 13.86 3.98 13.86C5.50 13.86 6.27 13.08 6.66 12.32L6.83 12.32L6.83 15.54C6.83 15.82 6.69 15.96 6.44 15.96L1.26 15.96L1.26 16.58L6.64 16.58C7.20 16.58 7.53 16.24 7.53 15.65L7.53 6.83ZM4.10 13.22C2.51 13.22 1.43 12.07 1.43 10.25C1.43 8.43 2.51 7.28 4.10 7.28C5.70 7.28 6.83 8.46 6.83 10.25C6.83 12.04 5.70 13.22 4.10 13.22ZM10.50 6.83L9.83 6.83L9.83 13.78L10.53 13.78L10.53 9.31C10.53 8.04 11.19 7.45 12.25 7.45L13.38 7.45L13.38 6.80L12.38 6.80C11.44 6.80 10.95 7.07 10.67 7.69L10.50 7.69ZM14.56 8.82L15.18 9.10C15.68 8.04 16.44 7.28 17.82 7.28C19.24 7.28 20.08 8.04 20.08 9.23L20.08 9.81L16.87 10.11C15.57 10.23 14.50 10.81 14.50 11.94C14.50 13.20 15.54 13.97 17.08 13.97C18.72 13.97 19.53 13.19 19.91 12.45L20.08 12.45L20.08 13.78L20.78 13.78L20.78 9.28C20.78 7.67 19.70 6.64 17.85 6.64C16.10 6.64 15.04 7.73 14.56 8.82ZM15.20 11.97C15.20 11.27 15.81 10.81 17.01 10.70L20.08 10.42L20.08 10.53C20.08 12.33 18.82 13.36 17.11 13.36C15.97 13.36 15.20 12.88 15.20 11.97ZM22.99 3.98L22.99 13.78L23.66 13.78L23.66 12.43L23.86 12.43C24.25 13.19 25.02 13.97 26.54 13.97C28.41 13.97 29.82 12.52 29.82 10.30C29.82 8.09 28.41 6.64 26.54 6.64C25.02 6.64 24.25 7.42 23.86 8.18L23.69 8.18L23.69 3.98ZM26.42 7.28C28.01 7.28 29.09 8.46 29.09 10.30C29.09 12.15 28.01 13.33 26.42 13.33C24.82 13.33 23.69 12.12 23.69 10.30C23.69 8.48 24.82 7.28 26.42 7.28ZM35.69 3.98L37.59 13.78L38.89 13.78L41.17 4.82L41.31 4.82L43.60 13.78L44.90 13.78L46.80 3.98L46.02 3.98L44.30 12.94L44.16 12.94L41.87 3.98L40.61 3.98L38.33 12.94L38.19 12.94L36.47 3.98ZM48.50 3.98L48.50 13.78L49.25 13.78L49.25 9.20L54.40 9.20L54.40 13.78L55.16 13.78L55.16 3.98L54.40 3.98L54.40 8.53L49.25 8.53L49.25 3.98ZM57.20 7.78L57.20 9.97C57.20 12.60 58.66 13.97 60.93 13.97C63.20 13.97 64.65 12.60 64.65 9.97L64.65 7.78C64.65 5.15 63.20 3.78 60.93 3.78C58.66 3.78 57.20 5.15 57.20 7.78ZM57.96 7.73C57.96 5.68 59.05 4.45 60.93 4.45C62.80 4.45 63.90 5.68 63.90 7.73L63.90 10.02C63.90 12.07 62.80 13.30 60.93 13.30C59.05 13.30 57.96 12.07 57.96 10.02ZM66.70 3.98L66.70 13.78L67.45 13.78L67.45 3.98ZM72.97 3.78C71.15 3.78 69.75 4.83 69.75 6.34C69.75 7.95 70.81 8.58 72.39 8.96L73.37 9.20C74.72 9.52 75.63 10.04 75.63 11.20C75.63 12.40 74.66 13.30 73.01 13.30C71.22 13.30 70.06 12.38 70.06 10.30L70.06 9.97L69.30 9.97L69.30 10.35C69.30 12.67 70.64 13.97 73.02 13.97C74.96 13.97 76.38 12.89 76.38 11.20C76.38 9.63 75.29 8.93 73.71 8.55L72.73 8.32C71.36 7.98 70.50 7.57 70.50 6.34C70.50 5.14 71.65 4.45 72.94 4.45C74.37 4.45 75.66 5.17 75.66 6.71L75.66 7.31L76.41 7.31L76.41 6.66C76.41 4.79 74.90 3.78 72.97 3.78Z"></path></g><!----><!----></svg>